# xmcd CD database file
#
# Track frame offsets:
#	183
#	8888
#	21123
#	35000
#	46315
#	57403
#	71305
#	85128
#	101895
#	116320
#	123223
#	134403
#
# Disc length: 1891 seconds
#
# Revision: 0
# Processed by: cddbd v1.4PL0 Copyright (c) Steve Scherf et al.
# Submitted via: CDex 1.51
#
DISCID=9b07610c
DTITLE=Stars der Volksmusik - Karussell - White Christmas mit den Stars der Volksmusik
DYEAR=1993
DGENRE=Country
TTITLE0=O Tnnenbaum
TTITLE1=Aber Heidschi Bumbeidschi
TTITLE2=Ihr Kinderlein kommet
TTITLE3=Schneewlazer
TTITLE4=Morgen, Kinder, wird`s was geben
TTITLE5=Still, still, still, weil`s Kindlein schlafen will
TTITLE6=Fröhliche Weihnacht
TTITLE7=Und ein Stern erstrahlt in dunkler Nacht
TTITLE8=Spatzl i liab di über alles
TTITLE9=Weihnachtsmuckl
TTITLE10=Vom Himmel hoch
TTITLE11=Leise rieselt der Schnee
EXTD=YEAR: 1993
EXTT0=
EXTT1=
EXTT2=
EXTT3=
EXTT4=
EXTT5=
EXTT6=
EXTT7=
EXTT8=
EXTT9=
EXTT10=
EXTT11=
PLAYORDER=
